Coordinates
version=1
nRows=9
nColumns=42
inDegrees=yes

Units are S.I. units (second, meters, Newtons, ...)
If the header above contains a line with 'inDegrees', this indicates whether rotational values are in degrees (yes) or radians (no).

endheader
time	pelvis_tilt	pelvis_list	pelvis_rotation	pelvis_tx	pelvis_ty	pelvis_tz	hip_flexion_r	hip_adduction_r	hip_rotation_r	knee_angle_r	knee_adduction_r	knee_angle_r_beta	ankle_angle_r	subtalar_angle_r	mtp_angle_r	hip_flexion_l	hip_adduction_l	hip_rotation_l	knee_angle_l	knee_adduction_l	knee_angle_l_beta	ankle_angle_l	subtalar_angle_l	mtp_angle_l	lumbar_extension	lumbar_bending	lumbar_rotation	arm_flex_r	arm_add_r	arm_rot_r	elbow_flex_r	pro_sup_r	wrist_flex_r	wrist_dev_r	arm_flex_l	arm_add_l	arm_rot_l	elbow_flex_l	pro_sup_l	wrist_flex_l	wrist_dev_l
      1.75000000	      4.39714083	      0.04118312	     12.75404013	     -0.64849892	      0.87609921	     -0.18355611	     16.66658955	     -6.27782409	    -23.04361530	     29.09645702	     -2.98007090	      0.50782898	     12.30426480	     23.11810309	     -7.65078394	      1.50248101	      0.07750313	     -0.24360870	     35.08325423	     -4.33821298	      0.61231830	     24.06103019	     20.33796309	     -7.65078394	    -27.78393069	     11.73474887	     -4.58695196	     -0.29297643	    -14.30679692	    -17.24245316	     50.74591833	     90.00000001	      0.00000000	      0.00000000	     18.95661120	     -8.88847463	     32.97936027	     49.40903633	     90.00000001	      0.00000000	      0.00000000
      1.76000000	      4.82025964	      0.08652720	     12.77263443	     -0.64409990	      0.87782505	     -0.18165101	     15.57770926	     -5.95383643	    -23.55512442	     28.43256813	     -3.10698098	      0.49624193	     12.81643214	     24.12620816	     -7.64792362	      0.66566281	     -0.27635988	     -0.26585640	     34.81794816	     -4.18931026	      0.60768783	     22.94110508	     20.19761982	     -7.64792362	    -28.18957549	     11.79342106	     -4.54224269	     -0.15488502	    -14.42090932	    -16.69350616	     51.09437161	     90.00000001	      0.00000000	      0.00000000	     18.81611354	     -9.01180870	     33.44547891	     49.50742848	     90.00000001	      0.00000000	      0.00000000
      1.77000000	      4.68945967	      0.22093654	     12.66365611	     -0.64013405	      0.87854999	     -0.17969329	     15.36525719	     -5.95933197	    -23.72188755	     28.32826021	     -3.08740605	      0.49442141	     12.86092823	     24.25151286	     -7.64728124	      0.57105112	     -0.34227033	     -0.31244207	     34.89326076	     -4.07560359	      0.60900229	     22.76760951	     20.14739328	     -7.64728124	    -28.00719855	     11.60368625	     -4.56532970	      0.11465551	    -14.40177255	    -16.60592785	     51.27767013	     90.00000001	      0.00000000	      0.00000000	     18.54991529	     -9.04701872	     33.54827882	     49.44675971	     90.00000001	      0.00000000	      0.00000000
      1.78000000	      4.87971237	      0.29712073	     12.71240964	     -0.63597580	      0.87984201	     -0.17787144	     14.61054381	     -5.79825601	    -24.38447978	     27.84251579	     -3.21035837	      0.48594357	     13.22563736	     25.41821123	     -7.64484966	      0.17051898	     -0.56063289	     -0.25236308	     34.98166489	     -3.96141375	      0.61054523	     21.73867239	     19.86980760	     -7.64484966	    -28.15636641	     11.58595941	     -4.65208968	      0.31350034	    -14.46473406	    -16.23632806	     51.54209403	     90.00000001	      0.00000000	      0.00000000	     18.37212648	     -9.18203299	     34.01607961	     49.51825867	     90.00000001	      0.00000000	      0.00000000
      1.79000000	      4.98192998	      0.44300440	     12.69143277	     -0.63181607	      0.88093536	     -0.17602607	     14.03196197	     -5.77518998	    -25.12026487	     27.52961135	     -3.37773243	      0.48048236	     13.42015698	     26.76163926	     -7.64163354	     -0.14991739	     -0.67420921	     -0.15114420	     35.11157286	     -3.78010703	      0.61281255	     21.09909861	     19.46658271	     -7.64163354	    -28.20403337	     11.46004083	     -4.73182530	      0.50926986	    -14.50134119	    -15.91343603	     51.78687357	     90.00000001	      0.00000000	      0.00000000	     18.19015042	     -9.32372391	     34.50345156	     49.57713302	     90.00000001	      0.00000000	      0.00000000
      1.80000000	      4.91558922	      0.60748788	     12.61259477	     -0.62785888	      0.88173135	     -0.17412374	     13.71730738	     -5.80362806	    -25.43789266	     27.36483172	     -3.40195444	      0.47760641	     13.55435279	     27.18502565	     -7.64016475	     -0.19151433	     -0.72488012	     -0.16522150	     35.40546697	     -3.63454079	      0.61794197	     20.64940325	     19.29991065	     -7.64016475	    -28.09402042	     11.26159461	     -4.80319801	      0.74700453	    -14.47046342	    -15.80007266	     51.96140318	     90.00000001	      0.00000000	      0.00000000	     17.98350683	     -9.37705918	     34.70155988	     49.54626113	     90.00000001	      0.00000000	      0.00000000
      1.81000000	      4.80276300	      0.72597285	     12.45510603	     -0.62384703	      0.88244816	     -0.17225481	     13.50992744	     -5.79743010	    -25.57631844	     27.29847426	     -3.37374779	      0.47644826	     13.59848625	     27.25703265	     -7.63994492	     -0.23761140	     -0.73044731	     -0.13690500	     35.58888218	     -3.59234057	      0.62114317	     20.48413596	     19.27553442	     -7.63994492	    -27.92618301	     11.09783124	     -4.75565768	      0.97416902	    -14.48299710	    -15.76935107	     52.07475409	     90.00000001	      0.00000000	      0.00000000	     17.71769585	     -9.32579731	     34.80439697	     49.50346771	     90.00000001	      0.00000000	      0.00000000
      1.82000000	      4.90660764	      0.75712347	     12.61607908	     -0.61989812	      0.88341212	     -0.17054642	     12.84837785	     -5.64088655	    -26.26082164	     26.79200618	     -3.42922081	      0.46760872	     13.98167233	     28.48101229	     -7.63747957	     -0.16171379	     -1.02685275	     -0.16534724	     36.32138357	     -3.45966831	      0.63392773	     18.99365091	     18.66659114	     -7.63747957	    -27.92913669	     11.14569026	     -4.96500702	      1.17245427	    -14.51624028	    -15.49171280	     52.31212325	     90.00000001	      0.00000000	      0.00000000	     17.61427727	     -9.52266754	     35.39778046	     49.60499072	     90.00000001	      0.00000000	      0.00000000
      1.83000000	      4.96078602	      0.88599306	     12.60802588	     -0.61596117	      0.88427883	     -0.16880466	     12.37077496	     -5.61930929	    -26.61291279	     26.57757271	     -3.42472541	      0.46386615	     14.11882784	     29.13006558	     -7.63575224	     -0.15059146	     -1.13245039	     -0.10176083	     36.91400961	     -3.31004279	      0.64427101	     18.33334905	     18.31889761	     -7.63575224	    -27.92646887	     11.04004223	     -5.04676110	      1.38041551	    -14.50670222	    -15.33807103	     52.46775235	     90.00000001	      0.00000000	      0.00000000	     17.48910572	     -9.56515841	     35.76627882	     49.61566445	     90.00000001	      0.00000000	      0.00000000
